<svg width="360" height="360" xmlns="http://www.w3.org/2000/svg">
<g transform="translate(30,330) scale(1,-1)">
<rect x="-30" y="-30" width="360" height="360" fill="white"/>
<line x1="0.000000" x2="30.000000" y1="0.000000" y2="0.000000" stroke="black" stroke-linecap="round" stroke-width="3"/>
<line x1="300.000000" x2="300.000000" y1="0.000000" y2="30.000000" stroke="black" stroke-linecap="round" stroke-width="3"/>
<line x1="30.000000" x2="60.000000" y1="0.000000" y2="0.000000" stroke="black" stroke-linecap="round" stroke-width="3"/>
<line x1="30.000000" x2="30.000000" y1="0.000000" y2="30.000000" stroke="black" stroke-linecap="round" stroke-width="3"/>
<line x1="60.000000" x2="90.000000" y1="0.000000" y2="0.000000" stroke="black" stroke-linecap="round" stroke-width="3"/>
<line x1="90.000000" x2="120.000000" y1="0.000000" y2="0.000000" stroke="black" stroke-linecap="round" stroke-width="3"/>
<line x1="90.000000" x2="90.000000" y1="0.000000" y2="30.000000" stroke="black" stroke-linecap="round" stroke-width="3"/>
<line x1="120.000000" x2="150.000000" y1="0.000000" y2="0.000000" stroke="black" stroke-linecap="round" stroke-width="3"/>
<line x1="120.000000" x2="120.000000" y1="0.000000" y2="30.000000" stroke="black" stroke-linecap="round" stroke-width="3"/>
<line x1="150.000000" x2="180.000000" y1="0.000000" y2="0.000000" stroke="black" stroke-linecap="round" stroke-width="3"/>
<line x1="180.000000" x2="210.000000" y1="0.000000" y2="0.000000" stroke="black" stroke-linecap="round" stroke-width="3"/>
<line x1="210.000000" x2="240.000000" y1="0.000000" y2="0.000000" stroke="black" stroke-linecap="round" stroke-width="3"/>
<line x1="210.000000" x2="210.000000" y1="0.000000" y2="30.000000" stroke="black" stroke-linecap="round" stroke-width="3"/>
<line x1="240.000000" x2="270.000000" y1="0.000000" y2="0.000000" stroke="black" stroke-linecap="round" stroke-width="3"/>
<line x1="270.000000" x2="300.000000" y1="0.000000" y2="0.000000" stroke="black" stroke-linecap="round" stroke-width="3"/>
<line x1="0.000000" x2="0.000000" y1="30.000000" y2="60.000000" stroke="black" stroke-linecap="round" stroke-width="3"/>
<line x1="300.000000" x2="300.000000" y1="30.000000" y2="60.000000" stroke="black" stroke-linecap="round" stroke-width="3"/>
<line x1="60.000000" x2="60.000000" y1="30.000000" y2="60.000000" stroke="black" stroke-linecap="round" stroke-width="3"/>
<line x1="90.000000" x2="90.000000" y1="30.000000" y2="60.000000" stroke="black" stroke-linecap="round" stroke-width="3"/>
<line x1="120.000000" x2="150.000000" y1="30.000000" y2="30.000000" stroke="black" stroke-linecap="round" stroke-width="3"/>
<line x1="150.000000" x2="180.000000" y1="30.000000" y2="30.000000" stroke="black" stroke-linecap="round" stroke-width="3"/>
<line x1="180.000000" x2="180.000000" y1="30.000000" y2="60.000000" stroke="black" stroke-linecap="round" stroke-width="3"/>
<line x1="210.000000" x2="210.000000" y1="30.000000" y2="60.000000" stroke="black" stroke-linecap="round" stroke-width="3"/>
<line x1="240.000000" x2="240.000000" y1="30.000000" y2="60.000000" stroke="black" stroke-linecap="round" stroke-width="3"/>
<line x1="240.000000" x2="270.000000" y1="30.000000" y2="30.000000" stroke="black" stroke-linecap="round" stroke-width="3"/>
<line x1="0.000000" x2="0.000000" y1="60.000000" y2="90.000000" stroke="black" stroke-linecap="round" stroke-width="3"/>
<line x1="300.000000" x2="300.000000" y1="60.000000" y2="90.000000" stroke="black" stroke-linecap="round" stroke-width="3"/>
<line x1="30.000000" x2="30.000000" y1="60.000000" y2="90.000000" stroke="black" stroke-linecap="round" stroke-width="3"/>
<line x1="30.000000" x2="60.000000" y1="60.000000" y2="60.000000" stroke="black" stroke-linecap="round" stroke-width="3"/>
<line x1="60.000000" x2="60.000000" y1="60.000000" y2="90.000000" stroke="black" stroke-linecap="round" stroke-width="3"/>
<line x1="90.000000" x2="90.000000" y1="60.000000" y2="90.000000" stroke="black" stroke-linecap="round" stroke-width="3"/>
<line x1="90.000000" x2="120.000000" y1="60.000000" y2="60.000000" stroke="black" stroke-linecap="round" stroke-width="3"/>
<line x1="120.000000" x2="150.000000" y1="60.000000" y2="60.000000" stroke="black" stroke-linecap="round" stroke-width="3"/>
<line x1="210.000000" x2="210.000000" y1="60.000000" y2="90.000000" stroke="black" stroke-linecap="round" stroke-width="3"/>
<line x1="210.000000" x2="240.000000" y1="60.000000" y2="60.000000" stroke="black" stroke-linecap="round" stroke-width="3"/>
<line x1="240.000000" x2="270.000000" y1="60.000000" y2="60.000000" stroke="black" stroke-linecap="round" stroke-width="3"/>
<line x1="0.000000" x2="0.000000" y1="90.000000" y2="120.000000" stroke="black" stroke-linecap="round" stroke-width="3"/>
<line x1="300.000000" x2="300.000000" y1="90.000000" y2="120.000000" stroke="black" stroke-linecap="round" stroke-width="3"/>
<line x1="60.000000" x2="60.000000" y1="90.000000" y2="120.000000" stroke="black" stroke-linecap="round" stroke-width="3"/>
<line x1="90.000000" x2="90.000000" y1="90.000000" y2="120.000000" stroke="black" stroke-linecap="round" stroke-width="3"/>
<line x1="120.000000" x2="120.000000" y1="90.000000" y2="120.000000" stroke="black" stroke-linecap="round" stroke-width="3"/>
<line x1="150.000000" x2="150.000000" y1="90.000000" y2="120.000000" stroke="black" stroke-linecap="round" stroke-width="3"/>
<line x1="180.000000" x2="210.000000" y1="90.000000" y2="90.000000" stroke="black" stroke-linecap="round" stroke-width="3"/>
<line x1="210.000000" x2="210.000000" y1="90.000000" y2="120.000000" stroke="black" stroke-linecap="round" stroke-width="3"/>
<line x1="210.000000" x2="240.000000" y1="90.000000" y2="90.000000" stroke="black" stroke-linecap="round" stroke-width="3"/>
<line x1="270.000000" x2="270.000000" y1="90.000000" y2="120.000000" stroke="black" stroke-linecap="round" stroke-width="3"/>
<line x1="0.000000" x2="0.000000" y1="120.000000" y2="150.000000" stroke="black" stroke-linecap="round" stroke-width="3"/>
<line x1="300.000000" x2="300.000000" y1="120.000000" y2="150.000000" stroke="black" stroke-linecap="round" stroke-width="3"/>
<line x1="0.000000" x2="30.000000" y1="120.000000" y2="120.000000" stroke="black" stroke-linecap="round" stroke-width="3"/>
<line x1="60.000000" x2="60.000000" y1="120.000000" y2="150.000000" stroke="black" stroke-linecap="round" stroke-width="3"/>
<line x1="90.000000" x2="120.000000" y1="120.000000" y2="120.000000" stroke="black" stroke-linecap="round" stroke-width="3"/>
<line x1="120.000000" x2="150.000000" y1="120.000000" y2="120.000000" stroke="black" stroke-linecap="round" stroke-width="3"/>
<line x1="150.000000" x2="150.000000" y1="120.000000" y2="150.000000" stroke="black" stroke-linecap="round" stroke-width="3"/>
<line x1="150.000000" x2="180.000000" y1="120.000000" y2="120.000000" stroke="black" stroke-linecap="round" stroke-width="3"/>
<line x1="210.000000" x2="210.000000" y1="120.000000" y2="150.000000" stroke="black" stroke-linecap="round" stroke-width="3"/>
<line x1="240.000000" x2="240.000000" y1="120.000000" y2="150.000000" stroke="black" stroke-linecap="round" stroke-width="3"/>
<line x1="270.000000" x2="300.000000" y1="120.000000" y2="120.000000" stroke="black" stroke-linecap="round" stroke-width="3"/>
<line x1="0.000000" x2="0.000000" y1="150.000000" y2="180.000000" stroke="black" stroke-linecap="round" stroke-width="3"/>
<line x1="300.000000" x2="300.000000" y1="150.000000" y2="180.000000" stroke="black" stroke-linecap="round" stroke-width="3"/>
<line x1="30.000000" x2="30.000000" y1="150.000000" y2="180.000000" stroke="black" stroke-linecap="round" stroke-width="3"/>
<line x1="30.000000" x2="60.000000" y1="150.000000" y2="150.000000" stroke="black" stroke-linecap="round" stroke-width="3"/>
<line x1="60.000000" x2="90.000000" y1="150.000000" y2="150.000000" stroke="black" stroke-linecap="round" stroke-width="3"/>
<line x1="120.000000" x2="120.000000" y1="150.000000" y2="180.000000" stroke="black" stroke-linecap="round" stroke-width="3"/>
<line x1="150.000000" x2="180.000000" y1="150.000000" y2="150.000000" stroke="black" stroke-linecap="round" stroke-width="3"/>
<line x1="240.000000" x2="240.000000" y1="150.000000" y2="180.000000" stroke="black" stroke-linecap="round" stroke-width="3"/>
<line x1="240.000000" x2="270.000000" y1="150.000000" y2="150.000000" stroke="black" stroke-linecap="round" stroke-width="3"/>
<line x1="270.000000" x2="300.000000" y1="150.000000" y2="150.000000" stroke="black" stroke-linecap="round" stroke-width="3"/>
<line x1="0.000000" x2="0.000000" y1="180.000000" y2="210.000000" stroke="black" stroke-linecap="round" stroke-width="3"/>
<line x1="300.000000" x2="300.000000" y1="180.000000" y2="210.000000" stroke="black" stroke-linecap="round" stroke-width="3"/>
<line x1="0.000000" x2="30.000000" y1="180.000000" y2="180.000000" stroke="black" stroke-linecap="round" stroke-width="3"/>
<line x1="30.000000" x2="30.000000" y1="180.000000" y2="210.000000" stroke="black" stroke-linecap="round" stroke-width="3"/>
<line x1="60.000000" x2="60.000000" y1="180.000000" y2="210.000000" stroke="black" stroke-linecap="round" stroke-width="3"/>
<line x1="60.000000" x2="90.000000" y1="180.000000" y2="180.000000" stroke="black" stroke-linecap="round" stroke-width="3"/>
<line x1="120.000000" x2="120.000000" y1="180.000000" y2="210.000000" stroke="black" stroke-linecap="round" stroke-width="3"/>
<line x1="150.000000" x2="180.000000" y1="180.000000" y2="180.000000" stroke="black" stroke-linecap="round" stroke-width="3"/>
<line x1="180.000000" x2="180.000000" y1="180.000000" y2="210.000000" stroke="black" stroke-linecap="round" stroke-width="3"/>
<line x1="210.000000" x2="240.000000" y1="180.000000" y2="180.000000" stroke="black" stroke-linecap="round" stroke-width="3"/>
<line x1="240.000000" x2="270.000000" y1="180.000000" y2="180.000000" stroke="black" stroke-linecap="round" stroke-width="3"/>
<line x1="0.000000" x2="0.000000" y1="210.000000" y2="240.000000" stroke="black" stroke-linecap="round" stroke-width="3"/>
<line x1="300.000000" x2="300.000000" y1="210.000000" y2="240.000000" stroke="black" stroke-linecap="round" stroke-width="3"/>
<line x1="30.000000" x2="60.000000" y1="210.000000" y2="210.000000" stroke="black" stroke-linecap="round" stroke-width="3"/>
<line x1="60.000000" x2="60.000000" y1="210.000000" y2="240.000000" stroke="black" stroke-linecap="round" stroke-width="3"/>
<line x1="90.000000" x2="90.000000" y1="210.000000" y2="240.000000" stroke="black" stroke-linecap="round" stroke-width="3"/>
<line x1="90.000000" x2="120.000000" y1="210.000000" y2="210.000000" stroke="black" stroke-linecap="round" stroke-width="3"/>
<line x1="120.000000" x2="150.000000" y1="210.000000" y2="210.000000" stroke="black" stroke-linecap="round" stroke-width="3"/>
<line x1="150.000000" x2="150.000000" y1="210.000000" y2="240.000000" stroke="black" stroke-linecap="round" stroke-width="3"/>
<line x1="180.000000" x2="180.000000" y1="210.000000" y2="240.000000" stroke="black" stroke-linecap="round" stroke-width="3"/>
<line x1="180.000000" x2="210.000000" y1="210.000000" y2="210.000000" stroke="black" stroke-linecap="round" stroke-width="3"/>
<line x1="210.000000" x2="240.000000" y1="210.000000" y2="210.000000" stroke="black" stroke-linecap="round" stroke-width="3"/>
<line x1="270.000000" x2="300.000000" y1="210.000000" y2="210.000000" stroke="black" stroke-linecap="round" stroke-width="3"/>
<line x1="0.000000" x2="0.000000" y1="240.000000" y2="270.000000" stroke="black" stroke-linecap="round" stroke-width="3"/>
<line x1="300.000000" x2="300.000000" y1="240.000000" y2="270.000000" stroke="black" stroke-linecap="round" stroke-width="3"/>
<line x1="30.000000" x2="60.000000" y1="240.000000" y2="240.000000" stroke="black" stroke-linecap="round" stroke-width="3"/>
<line x1="60.000000" x2="60.000000" y1="240.000000" y2="270.000000" stroke="black" stroke-linecap="round" stroke-width="3"/>
<line x1="60.000000" x2="90.000000" y1="240.000000" y2="240.000000" stroke="black" stroke-linecap="round" stroke-width="3"/>
<line x1="120.000000" x2="150.000000" y1="240.000000" y2="240.000000" stroke="black" stroke-linecap="round" stroke-width="3"/>
<line x1="150.000000" x2="150.000000" y1="240.000000" y2="270.000000" stroke="black" stroke-linecap="round" stroke-width="3"/>
<line x1="180.000000" x2="180.000000" y1="240.000000" y2="270.000000" stroke="black" stroke-linecap="round" stroke-width="3"/>
<line x1="210.000000" x2="210.000000" y1="240.000000" y2="270.000000" stroke="black" stroke-linecap="round" stroke-width="3"/>
<line x1="210.000000" x2="240.000000" y1="240.000000" y2="240.000000" stroke="black" stroke-linecap="round" stroke-width="3"/>
<line x1="270.000000" x2="300.000000" y1="240.000000" y2="240.000000" stroke="black" stroke-linecap="round" stroke-width="3"/>
<line x1="0.000000" x2="30.000000" y1="300.000000" y2="300.000000" stroke="black" stroke-linecap="round" stroke-width="3"/>
<line x1="0.000000" x2="0.000000" y1="270.000000" y2="300.000000" stroke="black" stroke-linecap="round" stroke-width="3"/>
<line x1="0.000000" x2="30.000000" y1="270.000000" y2="270.000000" stroke="black" stroke-linecap="round" stroke-width="3"/>
<line x1="30.000000" x2="60.000000" y1="300.000000" y2="300.000000" stroke="black" stroke-linecap="round" stroke-width="3"/>
<line x1="60.000000" x2="90.000000" y1="300.000000" y2="300.000000" stroke="black" stroke-linecap="round" stroke-width="3"/>
<line x1="60.000000" x2="90.000000" y1="270.000000" y2="270.000000" stroke="black" stroke-linecap="round" stroke-width="3"/>
<line x1="90.000000" x2="120.000000" y1="300.000000" y2="300.000000" stroke="black" stroke-linecap="round" stroke-width="3"/>
<line x1="90.000000" x2="120.000000" y1="270.000000" y2="270.000000" stroke="black" stroke-linecap="round" stroke-width="3"/>
<line x1="120.000000" x2="150.000000" y1="300.000000" y2="300.000000" stroke="black" stroke-linecap="round" stroke-width="3"/>
<line x1="150.000000" x2="180.000000" y1="300.000000" y2="300.000000" stroke="black" stroke-linecap="round" stroke-width="3"/>
<line x1="180.000000" x2="210.000000" y1="300.000000" y2="300.000000" stroke="black" stroke-linecap="round" stroke-width="3"/>
<line x1="180.000000" x2="210.000000" y1="270.000000" y2="270.000000" stroke="black" stroke-linecap="round" stroke-width="3"/>
<line x1="210.000000" x2="240.000000" y1="300.000000" y2="300.000000" stroke="black" stroke-linecap="round" stroke-width="3"/>
<line x1="210.000000" x2="210.000000" y1="270.000000" y2="300.000000" stroke="black" stroke-linecap="round" stroke-width="3"/>
<line x1="240.000000" x2="270.000000" y1="300.000000" y2="300.000000" stroke="black" stroke-linecap="round" stroke-width="3"/>
<line x1="240.000000" x2="270.000000" y1="270.000000" y2="270.000000" stroke="black" stroke-linecap="round" stroke-width="3"/>
<line x1="270.000000" x2="300.000000" y1="300.000000" y2="300.000000" stroke="black" stroke-linecap="round" stroke-width="3"/>
<line x1="270.000000" x2="270.000000" y1="270.000000" y2="300.000000" stroke="black" stroke-linecap="round" stroke-width="3"/>
</g>
</svg>
